<svg version="1.2" xmlns="http://www.w3.org/2000/svg" viewBox="0 0 1500 935" width="1500" height="935">
	<title>logo</title>
	<style>
		.s0 { fill: #f2e5b6 } 
	</style>
	<path id="Path 0" fill-rule="evenodd" class="s0" d="m1130.5 51.5c18.5 0.3 31.9 0.9 39.5 2 6.3 0.8 17.6 2.7 25 4.1 7.4 1.5 20 4.6 28 7.1 8 2.4 19.5 6.5 25.5 9.1 6 2.5 16.4 7.5 23 11 6.6 3.5 17.6 10.1 24.5 14.7 6.9 4.6 16.8 11.9 22 16.3 5.2 4.3 14.5 13.1 20.5 19.3 6 6.3 14.9 16.6 19.7 22.9 4.8 6.3 11.6 16.4 15.3 22.5 3.6 6.1 8.9 15.7 11.6 21.5 2.8 5.8 6.4 13.6 7.9 17.5 1.5 3.9 4 10.6 5.5 15 1.5 4.4 4.2 13.6 6.1 20.5 1.9 6.9 4.4 17.9 5.5 24.5 1.1 6.6 2.7 17.4 3.5 24 0.8 6.6 1.8 20.6 2.9 50.2l-2.2 1.1c-1.7 0.9-21.3 1.1-75.3 0.9-63.7-0.2-73.2-0.4-74-1.7-0.5-0.8-1-5.3-1-10 0-4.7-0.5-13.9-1-20.5-0.6-6.6-1.9-16.9-3-23-1.1-6.1-3.5-15.5-5.3-21-1.9-5.5-5.2-13.6-7.5-18-2.2-4.4-6.2-11.1-9-15-2.7-3.9-8.2-10.3-12.3-14.3-4.1-4-10.8-9.5-14.9-12.3-4.1-2.8-10.7-6.7-14.5-8.6-3.8-2-11.5-5.1-17-6.9-5.5-1.8-15.4-4.3-22-5.5-9.7-1.8-15.9-2.2-33-2.3-15.8 0-23.3 0.4-30.5 1.7-5.2 1-14 3.2-19.5 4.9-5.5 1.8-14.5 5.5-20 8.3-5.5 2.8-13.1 7.3-17 10-3.8 2.8-10.5 8.4-14.8 12.5-4.4 4.1-10.2 10.4-12.8 14-2.7 3.6-7.4 11.2-10.3 17-3 5.8-6.8 14.3-8.5 19-1.8 4.7-4.2 13-5.5 18.5-1.4 5.5-3.1 14.3-4 19.5-0.9 5.2-2 13.6-2.5 18.5-0.6 4.9-1.3 13.9-1.7 20-0.4 6.2-1.2 11.3-1.8 11.7-0.6 0.4-34.1 0.8-74.3 0.8-40.3 0-74-0.2-74.8-0.5-1.1-0.4-1.5-2.2-1.5-7.8 0-3.9 0.5-14.4 1-23.2 0.6-8.8 1.7-21.4 2.6-28 0.8-6.6 2.6-17.9 4-25 1.4-7.1 3.8-17.7 5.4-23.5 1.6-5.8 4.2-14.6 5.8-19.5 1.6-4.9 5.1-14.2 7.7-20.5 2.6-6.3 7.5-17.1 11-24 3.5-6.9 9.2-17 12.7-22.5 3.5-5.5 9.5-14.3 13.4-19.5 3.9-5.2 11.3-14.2 16.6-20 5.2-5.8 13.9-14.3 19.3-19 5.3-4.7 13.8-11.5 18.9-15.2 5-3.7 13.6-9.4 19.1-12.6 5.5-3.3 13.1-7.5 17-9.5 3.9-1.9 13.3-6 21-9 7.7-3.1 20.1-7.3 27.5-9.5 7.4-2.2 19.6-5.1 27-6.6 7.4-1.4 19.1-3.2 26-4.1 6.9-0.8 14.5-1.7 17-1.9 2.5-0.2 17.1-0.2 32.5-0.1zm-1049.8 379.5h19.3l0.5 4.2c0.2 2.4 1.3 17.9 2.2 34.6 1.4 22.6 2.1 30.2 3.1 30.2 0.8 0 1.2-2.2 1.2-7.5 0-4.1 0.7-19.1 1.5-33.3 0.9-14.1 1.8-26.3 2-27 0.4-0.9 4.6-1.2 16.5-1.2 15.7 0 16 0 16.8 2.2 0.5 1.3 1.6 13.8 2.6 27.8 0.9 14 1.6 28.5 1.6 32.2 0 5.4 0.3 6.8 1.5 6.8 1.2 0 1.5-1.3 1.5-5.8 0-3.1 0.7-17.6 1.5-32.2 0.9-14.6 1.8-27.5 2.1-28.8 0.4-2.1 0.8-2.2 19.4-2.2l-0.5 3.7c-0.2 2.1-0.7 8.7-1 14.8-0.3 6.1-1.2 21.6-2.1 34.5-1 13.5-2.1 24.1-2.8 24.8-0.8 1-5.2 1.3-17.3 1.2-12.1 0-16.4-0.3-16.7-1.3-0.3-0.6-1.4-12.9-2.5-27.2-1.2-14.3-2.1-29.1-2.1-33 0-5.6-0.3-7-1.5-7-1.1 0-1.5 1.2-1.5 4.5 0 2.5-0.7 14-1.5 25.5-0.9 11.5-1.9 24.8-3 38l-17.2 0.2c-15.8 0.3-17.3 0.1-17.8-1.5-0.2-0.9-0.9-7.6-1.4-14.7-0.6-7.1-1.5-21.3-2.1-31.5-0.5-10.2-1.3-21.3-1.6-24.8zm1275.2 0c8.5 0 9 0.2 9.5 2.3 0.3 1.2 0.6 13.1 0.8 26.2 0.2 20.7 0.5 24.5 2 27.3 0.9 1.8 3 4 4.5 5 1.7 1 4.8 1.7 8.2 1.7 3.2 0 6.9-0.8 8.8-1.7 1.8-1 4.2-3.6 5.5-6 2.1-4 2.3-5.8 3.2-54.3l20.5-0.5v50c0 40-0.3 50.7-1.3 53.3-0.8 1.8-2.4 4.1-3.6 5.2-2.1 1.9-3.9 2.1-26.4 2.3-13.3 0.2-25.2 0.1-26.4-0.2-2.2-0.5-2.3-0.9-1.8-19.1l18-0.2c12.3-0.2 18.4-0.7 19.3-1.5 0.9-0.9 1.3-4.3 1.3-11.5-0.1-6.1-0.5-10.3-1.1-10.3-0.5 0-1.6 1.3-2.4 2.8-0.8 1.5-2.4 3.7-3.7 4.9-1.3 1.3-4.2 3-6.4 3.9-2.6 1.1-6.6 1.7-11.5 1.6-6.1 0-8.5-0.5-13-2.8q-5.5-2.8-8.5-7.2c-1.6-2.4-3.6-6-4.4-8-1-2.7-1.6-10.9-2-31.3-0.4-21.1-0.2-28.2 0.7-29.8 1.1-1.8 2.2-2.1 10.2-2.1zm-455 131.1c40.4 0 74 0.3 74.6 0.7 0.7 0.4 1.4 6 1.8 13.3 0.4 6.8 1.4 17.6 2.2 23.9 0.8 6.4 2.2 15.2 3 19.6 0.9 4.3 2.4 11.1 3.4 14.9 1 3.9 3 10.4 4.5 14.5 1.4 4.2 4.6 11.6 6.9 16.6 2.4 4.9 6.3 12.1 8.8 15.9 2.5 3.9 7.2 10.2 10.5 14 3.2 3.9 9.9 10.3 14.9 14.3 4.9 3.9 13.2 9.4 18.4 12.1 5.2 2.7 14.2 6.6 20 8.5 5.8 2 15.9 4.6 22.5 5.8 9.7 1.7 16.1 2.1 33.5 2.2 15.9 0.1 24.4-0.4 32.5-1.6 6.1-1 14.2-2.7 18-3.8 3.9-1.1 10.2-3.2 14-4.6 3.9-1.5 10.3-4.5 14.4-6.8 4-2.2 11-7 15.5-10.6 4.4-3.5 11.3-10.5 15.3-15.5 4-4.9 9.5-13.2 12.2-18.5 2.7-5.2 6.4-13.5 8.1-18.5 1.7-4.9 4-14.3 5-21 1.1-6.6 2.2-16 3.2-30l-94.6 0.3c-83 0.2-94.8 0.1-96.1-1.3-1.2-1.2-1.5-5-1.5-21.5 0-16.8 0.3-20.2 1.6-21.5 1.4-1.3 21.7-1.5 170.5-1.5 92.9 0 169.6 0.3 170.4 0.5 1.3 0.5 1.5 18.4 1.5 305.6l-69-0.1c-60.4 0-69-0.1-69.5-1.5-0.3-0.8-0.5-20.8-0.5-87.5l-19.1 0.5-4.5 11c-2.4 6.1-6.3 14.2-8.5 18-2.3 3.9-6.5 10.2-9.3 14-2.9 3.9-8.1 10.1-11.6 13.9-3.6 3.8-9.9 9.7-14 13.2-4.1 3.4-10.9 8.3-15 10.9-4.1 2.5-12.4 6.6-18.5 9.2-6 2.5-16.6 5.9-23.5 7.4-6.9 1.6-17.2 3.6-23 4.5-5.8 0.8-20.2 1.8-32 2.1-13.4 0.4-26 0.2-33.5-0.5-6.6-0.7-16-1.9-21-2.7-4.9-0.9-14.2-2.8-20.5-4.4-6.3-1.6-17.3-4.9-24.5-7.5-7.1-2.6-18.4-7.5-25-10.8-6.6-3.2-16.9-9.2-23-13.2-6-4-14.6-10.1-18.9-13.6-4.4-3.6-12-10.5-17-15.5-5-4.9-12.3-12.8-16.2-17.5-3.9-4.6-9.5-11.8-12.4-16-2.9-4.1-7.1-10.4-9.3-14-2.2-3.5-6.3-10.7-9.2-16-2.8-5.2-7.5-14.6-10.3-21-2.8-6.3-6.7-16-8.7-21.5-1.9-5.5-4.9-14.5-6.6-20-1.7-5.5-4.1-14.5-5.4-20-1.3-5.5-3.5-16.5-4.9-24.5-1.4-7.9-3.2-21-4-29-0.8-7.9-1.8-22.9-2.3-33.2-0.7-16.3-0.6-19 0.7-19.8 0.9-0.5 30.7-0.9 75-0.9zm-678.5-494.6l0.3 10.6c0.1 5.7 2 68 4.2 138.4 2.2 70.4 4.1 134 4.2 141.3 0.3 11 0.1 13.5-1.2 14.3-0.9 0.5-27.3 0.9-66.5 1-50.8 0-65.4-0.3-66.8-1.3-1.7-1.1-2-3.3-2.7-21.3-0.4-11-1.3-36.8-2-57.5-0.6-20.6-2.7-79.5-4.7-130.9-1.9-51.5-3.2-93.9-2.8-94.3 0.3-0.4 31.5-0.6 138-0.3zm323.5-0.5l0.9 3.3c0.5 1.8 1.2 9.5 1.6 17.2 0.3 7.7 2.3 43.1 4.5 78.5 2.2 35.5 5.9 96 8.2 134.4 4.3 69.6 4.3 69.8 2.3 71.3-1.7 1.2-11 1.4-58.5 1.4-44 0-56.8-0.3-58.1-1.3-1.4-1.1-1.9-5.6-3.3-29.3-0.9-15.3-2.3-39-3.1-52.5-1-16.5-1.5-43.2-1.5-140h-27v57.3c0 49.4-0.3 62.6-2.4 96.2-1.4 21.5-2.8 45.5-3.3 53.4-0.7 12.2-1 14.5-2.5 15.3-1 0.4-26.9 0.8-57.8 0.8-35.3 0-56.7-0.3-58-1-1.6-0.8-2-1.9-2-6.2 0-2.9 0.9-19 2-35.8 1-16.7 2.4-39 3-49.5 0.6-10.4 2.9-48.9 5.1-85.5 2.2-36.5 4.8-79.7 5.8-96 1.1-16.3 2.2-30.1 2.6-30.8 0.5-0.9 28.7-1.2 241.5-1.2zm220.5 0l-0.7 25.3c-0.5 13.9-2.4 69.3-4.3 123.2-1.9 53.9-3.9 110.9-4.4 126.5-0.8 25.9-1.1 28.7-2.8 29.8-1.4 1-15.9 1.3-66.8 1.3-50.9 0-65.4-0.3-66.7-1.3-1.7-1.2-1.6-5.3 0.7-78.3 1.4-42.3 3.1-101.5 4-131.5 0.8-29.9 1.8-63.2 2.1-74 0.4-10.7 0.9-19.8 1.1-20.2 0.2-0.4 31.3-0.8 137.8-0.8zm-539.5 326.5c2.5 0.2 5.6 1.3 7 2.4 1.4 1 3.3 3 4.3 4.3 1 1.3 2.1 4.1 2.4 6.3 0.5 3 0.1 5.2-1.5 8.5-1.4 3-3.4 5.3-5.9 6.8-2.1 1.2-5.5 2.2-7.5 2.2-2.1 0-4.8-0.5-6-1.1-1.3-0.6-3.3-2.1-4.6-3.2-1.3-1.2-3-3.7-3.8-5.7-0.8-1.9-1.4-4.4-1.4-5.5 0-1.1 0.6-3.5 1.4-5.5 0.8-1.9 2.5-4.4 3.8-5.6 1.3-1.2 3.4-2.7 4.8-3.3 1.4-0.6 4.5-0.8 7-0.6zm230 5.5v111h-9.5c-8.5 0-9.6-0.2-10.5-2-0.5-1.1-1-3.5-1-5.5 0-1.9-0.3-3.5-0.7-3.5-0.4 0-1.6 1.4-2.5 3-1 1.7-3.2 4.1-5 5.4-1.8 1.3-5.1 3-7.3 3.7-2.2 0.7-7.1 1.2-11 1.2-3.8-0.1-9-0.8-11.5-1.7-2.5-0.9-6.2-2.9-8.3-4.3-2.1-1.5-5.4-5-7.2-7.8-1.9-2.7-4.2-7.2-5.2-10-1.3-3.7-1.8-8-1.8-17.5 0-9.9 0.4-13.5 2-17.5 1-2.7 2.9-6.5 4.1-8.5 1.2-1.9 4.1-5.2 6.5-7.4 2.4-2.2 6.4-4.8 8.9-5.9 2.5-1.1 7.2-2.2 10.5-2.4 3.3-0.3 8.3 0 11 0.6 3.3 0.7 6.6 2.5 9.8 5.1 2.6 2.2 4.9 4.9 5.2 6 0.3 1.1 1 2 1.5 2 0.7 0 1-7.5 1-20.5 0-11.2 0.3-21.1 0.6-22 0.5-1.1 2.6-1.5 20.4-1.5zm-55.5 55.8c-1.8 2-3.7 5.3-4.4 7.2-0.6 2-1.1 5.8-1.1 8.5 0 2.8 0.5 6.8 1.1 9 0.7 2.3 2.8 5.7 4.8 7.7 2 2 5.4 4.1 7.6 4.7 2.2 0.6 5.1 1.1 6.5 1.1 1.4 0 4.2-0.4 6.3-1 2-0.5 5.4-2.5 7.5-4.3 2-1.9 4.3-5.1 5-7.3 0.6-2.1 1.2-7 1.2-10.9 0-5.5-0.5-7.8-2.4-11-1.2-2.2-4-5-6.2-6.4-2.7-1.7-5.6-2.5-9.9-2.7-3.3-0.2-7.5 0.1-9.4 0.6-2 0.6-4.8 2.6-6.6 4.8zm558.5-55.8h23c19.6 0 23.1 0.3 23.5 1.5 0.3 0.9 0.5 21.6 0.5 90.5h26v19l-73.5-0.5-0.5-18.5 12.8-0.1c7 0 13.1 0 13.5 0 0.4 0.1 0.7-16.1 0.7-71.9h-26zm95.9 0h23.6c20 0 23.6 0.3 24 1.5 0.3 0.9 0.5 21.6 0.5 90.5l11.8 0.1c7.9 0.1 12 0.5 12.5 1.3 0.4 0.6 0.6 4.7 0.2 17.1h-73l-0.2-8.5c-0.2-4.6 0-8.8 0.5-9.2 0.4-0.3 6.7-0.7 27.2-0.8v-72l-26.5-0.5zm-724.4 30.4c4.5 0.2 8.4 1.1 11 2.4 2.2 1.1 5.6 3.7 7.5 5.9 2 2.1 4.5 6.1 5.5 8.8 1.8 4.6 2 7.7 2 63h-20l-0.5-25.5c-0.5-23.3-0.7-25.8-2.5-29-1.2-1.9-3.6-4.3-5.5-5.3-2.7-1.3-4.9-1.6-9-1.2-3.1 0.3-6.6 1.3-8 2.4-1.4 1-3.4 3.4-4.5 5.3-1.8 3.1-2 5.4-2.5 53.8l-20.5-0.5-0.3-37c-0.1-20.3 0-38 0.3-39.2 0.5-2.2 0.9-2.2 20-1.8l0.2 5.8c0.2 3.2 0.7 5.6 1.2 5.5 0.6-0.1 2-1.8 3.3-3.7 1.3-1.8 3.4-4.2 4.8-5.2 1.4-1.1 4.3-2.6 6.5-3.4 2.6-1 6.4-1.4 11-1.1zm181-0.2c3.3-0.1 8 0.4 10.5 0.9 2.5 0.6 7 2.3 10 3.7 3 1.5 7.5 4.7 10 7.2 2.5 2.5 5.7 7.1 7.2 10.3 1.6 3.2 3.2 8.8 3.7 12.5 0.5 3.7 0.6 9.7 0.1 13.2-0.4 3.6-2 9.4-3.6 12.9q-2.9 6.4-8.2 11.3c-2.8 2.7-7.6 6-10.5 7.3-2.8 1.3-8.1 2.9-11.7 3.5-3.6 0.5-8.5 0.7-11 0.4-2.5-0.3-7.2-1.4-10.5-2.5-3.3-1-8.1-3.5-10.8-5.4-2.6-1.9-6.1-5.4-7.7-7.7-1.7-2.3-4-6.7-5.1-9.8-1.2-3-2.3-8.8-2.6-13-0.3-5 0-9.7 1.1-14.2 0.9-3.7 2.7-8.7 4-11 1.3-2.3 4.5-6.2 7-8.5 2.5-2.3 6.5-5.2 8.8-6.4 2.4-1.2 6.3-2.7 8.8-3.4 2.5-0.7 7.2-1.3 10.5-1.3zm-13.8 25.6c-1.5 1.5-3.5 4.5-4.3 6.7-1.1 2.8-1.5 6.2-1.2 11 0.3 5.2 1.1 8.1 2.9 11 1.3 2.1 3.5 4.7 4.9 5.7 1.4 1 5 2.3 8 2.9 4.1 0.9 6.6 0.9 9.7 0.1 2.4-0.6 5.9-2.6 7.9-4.4 2-1.8 4.4-4.6 5.2-6.3 1-1.9 1.6-5.6 1.6-10.5 0.1-5.6-0.4-8.4-2-11.5-1.2-2.2-3.8-5.2-6-6.7-2.9-2.1-5.4-3-9.9-3.3-4-0.3-7.4 0-10 1-2.2 0.9-5.3 2.8-6.8 4.3zm299.3-25.4c6 0.2 8.5 0.8 12.2 2.9 2.7 1.5 6 4.6 7.5 6.8 1.6 2.2 3.1 4 3.5 4 0.5 0 0.8-2.8 0.8-12.1h21v50c0 40-0.3 50.7-1.4 53.3-0.7 1.8-2.3 4.1-3.6 5.2-2.1 1.9-3.8 2.1-30.4 2.3-21.4 0.2-28.4-0.1-29.4-1-0.8-0.8-1.3-3.8-1.3-8.5 0.1-4 0.3-7.9 0.6-8.8 0.4-1.2 3.7-1.5 21.3-1.5 15.3 0 21.1-0.3 22-1.2 0.8-0.8 1.2-4.8 1.2-11.5 0-5.6-0.3-10.3-0.8-10.3-0.4 0-1.9 1.8-3.5 4-1.9 2.8-4.5 4.9-8.5 6.7-4.7 2.3-7.1 2.7-13.7 2.7-6.5 0-9.1-0.5-14-2.7-3.3-1.5-7.5-4.2-9.3-6-1.9-1.7-4.6-5.6-6.1-8.7-1.5-3-3.3-7.5-3.9-10-0.6-2.4-1.3-6.6-1.6-9.2-0.4-2.6-0.1-8.2 0.4-12.5 0.6-4.3 2.2-10.2 3.6-13.3 1.4-3 4-7.2 5.7-9.3 1.8-2.2 5.2-5.1 7.7-6.5 2.5-1.4 6.3-3.1 8.5-3.8 2.2-0.8 7.3-1.2 11.5-1zm-10.8 24.9c-1.2 1.2-2.9 3.7-3.7 5.5-0.9 1.9-1.5 6.3-1.5 10.7 0 4.2 0.6 9 1.3 10.8 0.8 1.8 3 4.7 5 6.5 2 1.8 5.6 3.8 7.9 4.4 3.2 0.8 5.7 0.8 9.8-0.1 3-0.6 6.6-1.9 8-2.9 1.4-1 3.6-3.6 4.9-5.7 1.7-2.7 2.6-5.9 2.9-10 0.2-3.2-0.1-7.9-0.7-10.2-0.6-2.3-2.3-5.7-3.9-7.4-1.5-1.8-4.5-4-6.7-5-2.2-1-6-1.8-8.5-1.8-2.5 0-6.3 0.7-8.5 1.5-2.2 0.8-5 2.5-6.3 3.7zm103.5-25.2c2.9 0 7.2 0.5 9.5 1.2 2.7 0.8 6 3 9 6 2.7 2.6 5 4.7 5.3 4.7 0.3 0 0.6-2.1 1-9.5l9.7-0.2c5.4-0.1 9.9-0.1 10 0 0.1 0.1 0.5 13.3 1.3 58.2l6.5 2v18.5h-9.3c-7.4 0-9.8-0.3-12.5-2-2-1.2-3.6-3.2-4.2-5.5-0.6-1.9-1.3-3.4-1.8-3.4-0.4 0-2.1 2-3.7 4.3-1.9 2.5-4.9 5.1-8 6.6-3.9 1.9-6.6 2.4-12 2.4-5.5 0-8.3-0.6-13-2.7-3.3-1.5-7.7-4.4-9.8-6.5-2.1-2-4.9-5.4-6.2-7.7-1.3-2.2-3.1-6.9-4-10.5-1.3-4.8-1.6-9-1.2-17 0.3-7.3 1.1-12.1 2.5-16 1.2-3 3.6-7.4 5.4-9.9 1.8-2.4 5.3-5.7 7.8-7.4 2.5-1.7 6.3-3.6 8.5-4.3 2.2-0.7 6.4-1.2 9.2-1.3zm-6.6 24.2c-1.3 1.2-3.2 4-4.2 6.2-1.3 2.8-1.9 6.4-1.9 11.5 0 5.9 0.5 8.5 2.2 12 1.3 2.5 3.9 5.6 5.8 6.8 1.9 1.3 5.5 2.5 8 2.9 2.9 0.3 5.9 0 8.5-1 2.2-0.8 5.4-3 7.1-4.8 1.9-2.1 3.5-5.3 4.3-8.9 0.8-3.3 1.1-7.6 0.7-11-0.4-3-1.7-7.2-2.9-9.5q-2.2-4-6.7-6.2c-2.6-1.3-6.2-2.2-8.5-2.2-2.2 0.1-5.4 0.5-7 1-1.7 0.6-4.1 2-5.4 3.2zm306.9-23.9c6.8 0.2 9.8 0.9 15 3.3 3.6 1.6 8.2 4.6 10.2 6.7 2.1 2 4.9 5.3 6.3 7.4 1.3 2.1 3.1 6.4 4 9.7 0.8 3.3 1.5 9.5 1.5 21.5h-28.5c-18.3 0-28.5 0.4-28.5 1 0 0.6 0.8 2.7 1.7 4.7 1.1 2.2 3.4 4.5 5.8 5.9 2.2 1.2 5.3 2.6 7 2.9 1.6 0.4 5.2 0.3 8-0.1 3.6-0.5 5.9-1.6 8.5-4 1.9-1.8 4.2-3.3 5-3.3 0.8 0 4.8 1.8 8.7 4 4 2.2 7.3 4.5 7.3 5.2 0 0.7-1.3 3-2.8 5.1-1.5 2.1-4.7 5.2-7.2 6.8-2.5 1.6-7 3.7-10 4.6-3.1 0.9-9 1.6-13.5 1.6-5.7 0-10-0.7-15-2.4-5.3-1.8-8.3-3.6-12.5-7.5-3-2.9-6.6-7.4-7.9-10.1-1.3-2.7-3.1-8.5-4-12.9-1.2-6.7-1.3-9.2-0.3-16 0.7-4.4 2-9.8 3-12 1-2.2 3.8-6.2 6.2-8.8 2.5-2.7 6.3-6.1 8.5-7.5 2.2-1.4 6.5-3.3 9.5-4.3 4.1-1.4 7.7-1.8 14-1.5zm-15.4 23.5c-1 0.9-2.4 2.9-3.2 4.4l-1.4 2.7c34.7 0 36-0.1 35.5-1.7-0.3-1-2-3.2-3.8-4.9-1.7-1.7-4.8-3.6-6.7-4.2-1.9-0.7-5.3-1.2-7.5-1.1-2.2 0-5.6 0.7-7.5 1.6-1.9 0.8-4.3 2.2-5.4 3.2zm125.9-23.8c2.7 0 6.6 0.5 8.5 1.2 1.9 0.7 5.2 2.4 7.4 3.7 2.1 1.4 4.9 4.3 6.1 6.5 1.3 2.2 2.8 6.4 3.4 9.3 0.6 2.9 1.1 6.8 1.1 8.7 0 2.8-0.5 3.7-2.3 4.4-1.2 0.5-5.9 1.2-10.5 1.5-7.3 0.6-8.3 0.5-8.6-1.1-0.2-1-0.7-3.4-1-5.5-0.4-2.5-1.6-4.6-3.6-6.3-2.3-1.9-4.1-2.4-7.8-2.4-2.6 0-5.8 0.5-7.2 1.2-1.4 0.7-3.5 3.3-4.8 5.8-2 4-2.2 5.9-2.2 34.4l8.2 0.4c4.6 0.1 8.6 0.6 9.1 1 0.4 0.3 0.6 4.5 0.2 17.6l-54.5 0.5 0.5-18.5 15.5-0.5v-40h-6.5c-4.9 0-6.6-0.3-7-1.5-0.3-0.8-0.5-4.6-0.5-8.5 0-3.8 0.2-7.6 0.5-8.5 0.4-1.2 3.2-1.5 33.5-1.5v6c0 3.3 0.3 6 0.7 6 0.5 0 2.1-2 3.8-4.3 1.8-2.8 4.8-5.3 8-7 3.4-1.7 6.6-2.6 10-2.6zm-1110.5 1.9h22c18.7 0 22.1 0.3 22.5 1.5 0.3 0.9 0.5 14.4 0.5 30 0 15.7 0.3 28.5 0.7 28.4 0.5 0 5.6 0 22.3 0.1v19l-69.5-0.5-0.5-18.5h26v-40h-24zm391.5 0.5l1.7 25.5c0.9 14.1 1.7 29.5 1.7 34.3 0.1 6.3 0.4 8.8 1.3 8.8 1 0 1.6-5.7 2.6-21.3 0.8-11.7 1.7-26.7 2.1-33.3 0.4-6.6 1-12.5 1.4-13.2 0.5-0.9 4.9-1.3 16.7-1.3 11.9 0 16.1 0.4 16.4 1.3 0.3 0.7 1.5 16.2 2.8 34.5 1.7 24.7 2.6 33.3 3.5 33.3 1 0 1.3-2.9 1.3-10.8 0-5.9 0.5-19.8 1.1-30.8 0.6-11 1.5-21.6 2.9-27.5h8.5c8 0 8.5 0.2 9 2.3 0.3 1.2-0.6 18.4-2 38.2-1.4 19.8-2.5 36.6-2.5 37.3 0 1-4.2 1.2-17.5 1.2-17.4 0-17.5 0-17.9-2.2-0.3-1.2-1.4-14.9-2.6-30.3-1.1-15.3-2-29.9-2-32.2 0-3-0.4-4.1-1.3-3.7-0.8 0.3-1.4 5.2-2 16.2-0.4 8.7-1.4 23.6-2.2 33.2-0.8 9.7-1.8 17.9-2.2 18.3-0.5 0.4-8.5 0.6-34.8 0.2l-0.8-13.5c-0.5-7.4-1.6-24.6-2.5-38.2-1-13.6-1.5-25.2-1.4-25.8 0.3-0.6 3.8-0.9 18.7-0.5zm-413.9 130.5c60.9 0 65.5 0.2 67.2 1.8 1.6 1.6 1.9 4.5 2.6 27.7 0.4 14.3 1.1 40.4 1.6 58 0.5 17.7 1 53.8 1 128.5h26v-51.2c0-47.5 0.3-55.3 3.5-107.3 2.5-39.2 3.9-56.2 4.8-56.7 0.7-0.4 27.1-0.7 58.7-0.8 45.8 0 57.7 0.2 58.7 1.3 0.9 1 0.8 8.3-0.7 33.2-1.1 17.7-3.8 62-6 98.5-2.2 36.6-4.7 78.3-5.5 92.5-0.8 14.3-2.2 37.8-3.1 52-0.9 14.3-1.7 26.6-2 27.3-0.3 1-27.5 1.2-131.4 1.2-123.9 0-131 0-131.6-1.7-0.4-1-1.2-17-2-35.8-0.7-18.7-1.8-50.6-2.4-71-0.6-20.3-2.4-72.5-4-116-1.9-53.4-2.5-79.4-1.8-80.2 0.8-1 15.3-1.3 66.4-1.3zm348.4 0.1c31.6 0 58 0.3 58.7 0.7 0.8 0.5 2 13.9 3.7 42.7 1.4 23.2 3 49.5 3.6 58.5 0.5 9.1 1 38.5 1 114h26v-55.7c0-30.7 0.7-74.6 1.5-97.8 0.8-23.1 1.5-45.7 1.5-50.2 0-6.9 0.3-8.6 2-10.3 2-1.9 3.3-1.9 66.7-1.9 38.9 0 65.4 0.4 66.3 0.9 1.3 0.8 1.4 4.2 0.7 25.3-0.4 13.3-2.3 68.6-4.2 122.7-1.9 54.2-3.9 110.9-4.4 126-0.5 15.2-1.2 28.3-1.5 29.3-0.6 1.7-7.7 1.7-131.6 1.7-103.9 0-131.1-0.2-131.5-1.2-0.2-0.7-2.2-31.6-4.5-68.8-2.2-37.1-5.8-96.7-8-132.5-2.2-35.7-4.4-73.3-5-83.5-0.8-14.7-0.8-18.6 0.2-19.2 0.7-0.4 27.2-0.7 58.8-0.7z"/>
</svg>